<?xml version="1.0" encoding="UTF-8" standalone="yes"?><svg xmlns="http://www.w3.org/2000/svg" xmlns:xlink="http://www.w3.org/1999/xlink" height="497px" style="width:602px;height:497px;" version="1.1" viewBox="0 0 602 497" width="602px"><defs><filter height="300%" id="f1" width="300%" x="-1" y="-1"><feGaussianBlur result="blurOut" stdDeviation="2.0"/><feColorMatrix in="blurOut" result="blurOut2" type="matrix" values="0 0 0 0 0 0 0 0 0 0 0 0 0 0 0 0 0 0 .4 0"/><feOffset dx="4.0" dy="4.0" in="blurOut2" result="blurOut3"/><feBlend in="SourceGraphic" in2="blurOut3" mode="normal"/></filter></defs><g><polygon fill="#FFFFFF" filter="url(#f1)" points="22,237,84,237,91,259.2969,416,259.2969,416,490,22,490,22,237" style="stroke: #000000; stroke-width: 2.0;"/><line style="stroke: #000000; stroke-width: 2.0;" x1="22" x2="91" y1="259.2969" y2="259.2969"/><text fill="#000000" font-family="sans-serif" font-size="14" font-weight="bold" lengthAdjust="spacingAndGlyphs" textLength="56" x="25" y="252.9951">person</text><polygon fill="#FFFFFF" filter="url(#f1)" points="23,24,64,24,71,46.2969,397,46.2969,397,213,23,213,23,24" style="stroke: #000000; stroke-width: 2.0;"/><line style="stroke: #000000; stroke-width: 2.0;" x1="23" x2="71" y1="46.2969" y2="46.2969"/><text fill="#000000" font-family="sans-serif" font-size="14" font-weight="bold" lengthAdjust="spacingAndGlyphs" textLength="35" x="26" y="39.9951">race</text><rect fill="#FEFECE" filter="url(#f1)" height="201.6563" style="stroke: #A80036; stroke-width: 1.5;" width="345" x="37.5" y="272"/><ellipse cx="187.75" cy="288" fill="#ADD1B2" rx="11" ry="11" style="stroke: #A80036; stroke-width: 1.0;"/><path d="M190.7188,293.6406 Q190.1406,293.9375 189.5,294.0859 Q188.8594,294.2344 188.1563,294.2344 Q185.6563,294.2344 184.3359,292.5859 Q183.0156,290.9375 183.0156,287.8125 Q183.0156,284.6875 184.3359,283.0313 Q185.6563,281.375 188.1563,281.375 Q188.8594,281.375 189.5078,281.5313 Q190.1563,281.6875 190.7188,281.9844 L190.7188,284.7031 Q190.0938,284.125 189.5,283.8516 Q188.9063,283.5781 188.2813,283.5781 Q186.9375,283.5781 186.25,284.6484 Q185.5625,285.7188 185.5625,287.8125 Q185.5625,289.9063 186.25,290.9766 Q186.9375,292.0469 188.2813,292.0469 Q188.9063,292.0469 189.5,291.7734 Q190.0938,291.5 190.7188,290.9219 L190.7188,293.6406 Z "/><text fill="#000000" font-family="sans-serif" font-size="12" lengthAdjust="spacingAndGlyphs" textLength="36" x="208.25" y="292.1543">Driver</text><line style="stroke: #A80036; stroke-width: 1.5;" x1="38.5" x2="381.5" y1="304" y2="304"/><ellipse cx="48.5" cy="315.9023" fill="none" rx="3" ry="3" style="stroke: #038048; stroke-width: 1.0;"/><text fill="#000000" font-family="sans-serif" font-size="11" lengthAdjust="spacingAndGlyphs" text-decoration="underline" textLength="103" x="57.5" y="318.2104">javaDriver : Driver</text><line style="stroke: #000000; stroke-width: 1.0;" x1="57.5" x2="160.5" y1="320.2104" y2="320.2104"/><rect fill="none" height="6" style="stroke: #C82930; stroke-width: 1.0;" width="6" x="45.5" y="325.707"/><text fill="#000000" font-family="sans-serif" font-size="11" lengthAdjust="spacingAndGlyphs" textLength="78" x="57.5" y="331.0151">name : String</text><rect fill="none" height="6" style="stroke: #C82930; stroke-width: 1.0;" width="6" x="45.5" y="338.5117"/><text fill="#000000" font-family="sans-serif" font-size="11" lengthAdjust="spacingAndGlyphs" textLength="86" x="57.5" y="343.8198">races : String[]</text><line style="stroke: #A80036; stroke-width: 1.5;" x1="38.5" x2="381.5" y1="350.4141" y2="350.4141"/><ellipse cx="48.5" cy="362.3164" fill="#84BE84" rx="3" ry="3" style="stroke: #038048; stroke-width: 1.0;"/><text fill="#000000" font-family="sans-serif" font-size="11" lengthAdjust="spacingAndGlyphs" textLength="218" x="57.5" y="364.6245">&lt;&lt;constructor&gt;&gt; Driver(data : String)</text><rect fill="#F24D5C" height="6" style="stroke: #C82930; stroke-width: 1.0;" width="6" x="45.5" y="372.1211"/><text fill="#000000" font-family="sans-serif" font-size="11" lengthAdjust="spacingAndGlyphs" textLength="231" x="57.5" y="377.4292">&lt;&lt;constructor&gt;&gt; Driver(parts : String[])</text><ellipse cx="48.5" cy="387.9258" fill="#84BE84" rx="3" ry="3" style="stroke: #038048; stroke-width: 1.0;"/><text fill="#000000" font-family="sans-serif" font-size="11" lengthAdjust="spacingAndGlyphs" textLength="319" x="57.5" y="390.2339">&lt;&lt;constructor&gt;&gt; Driver(name : String, races : String[])</text><ellipse cx="48.5" cy="400.7305" fill="#84BE84" rx="3" ry="3" style="stroke: #038048; stroke-width: 1.0;"/><text fill="#000000" font-family="sans-serif" font-size="11" lengthAdjust="spacingAndGlyphs" textLength="105" x="57.5" y="403.0386">getName() : String</text><ellipse cx="48.5" cy="413.5352" fill="#84BE84" rx="3" ry="3" style="stroke: #038048; stroke-width: 1.0;"/><text fill="#000000" font-family="sans-serif" font-size="11" lengthAdjust="spacingAndGlyphs" textLength="168" x="57.5" y="415.8433">setName(name : String): void</text><ellipse cx="48.5" cy="426.3398" fill="#84BE84" rx="3" ry="3" style="stroke: #038048; stroke-width: 1.0;"/><text fill="#000000" font-family="sans-serif" font-size="11" lengthAdjust="spacingAndGlyphs" textLength="114" x="57.5" y="428.6479">getRaces() : String[]</text><ellipse cx="48.5" cy="439.1445" fill="#84BE84" rx="3" ry="3" style="stroke: #038048; stroke-width: 1.0;"/><text fill="#000000" font-family="sans-serif" font-size="11" lengthAdjust="spacingAndGlyphs" textLength="181" x="57.5" y="441.4526">setRaces(races : String[]) : void</text><ellipse cx="48.5" cy="451.9492" fill="#84BE84" rx="3" ry="3" style="stroke: #038048; stroke-width: 1.0;"/><text fill="#000000" font-family="sans-serif" font-size="11" lengthAdjust="spacingAndGlyphs" textLength="99" x="57.5" y="454.2573">toString() : String</text><ellipse cx="48.5" cy="464.7539" fill="#84BE84" rx="3" ry="3" style="stroke: #038048; stroke-width: 1.0;"/><text fill="#000000" font-family="sans-serif" font-size="11" lengthAdjust="spacingAndGlyphs" textLength="221" x="57.5" y="467.062">hasRace(raceToFind : String) : boolean</text><rect fill="#FEFECE" filter="url(#f1)" height="137.6328" style="stroke: #A80036; stroke-width: 1.5;" width="342" x="39" y="59"/><ellipse cx="190.25" cy="75" fill="#ADD1B2" rx="11" ry="11" style="stroke: #A80036; stroke-width: 1.0;"/><path d="M193.2188,80.6406 Q192.6406,80.9375 192,81.0859 Q191.3594,81.2344 190.6563,81.2344 Q188.1563,81.2344 186.8359,79.5859 Q185.5156,77.9375 185.5156,74.8125 Q185.5156,71.6875 186.8359,70.0313 Q188.1563,68.375 190.6563,68.375 Q191.3594,68.375 192.0078,68.5313 Q192.6563,68.6875 193.2188,68.9844 L193.2188,71.7031 Q192.5938,71.125 192,70.8516 Q191.4063,70.5781 190.7813,70.5781 Q189.4375,70.5781 188.75,71.6484 Q188.0625,72.7188 188.0625,74.8125 Q188.0625,76.9063 188.75,77.9766 Q189.4375,79.0469 190.7813,79.0469 Q191.4063,79.0469 192,78.7734 Q192.5938,78.5 193.2188,77.9219 L193.2188,80.6406 Z "/><text fill="#000000" font-family="sans-serif" font-size="12" lengthAdjust="spacingAndGlyphs" textLength="31" x="210.75" y="79.1543">Race</text><line style="stroke: #A80036; stroke-width: 1.5;" x1="40" x2="380" y1="91" y2="91"/><rect fill="none" height="6" style="stroke: #C82930; stroke-width: 1.0;" width="6" x="47" y="99.9023"/><text fill="#000000" font-family="sans-serif" font-size="11" lengthAdjust="spacingAndGlyphs" textLength="78" x="59" y="105.2104">name : String</text><rect fill="none" height="6" style="stroke: #C82930; stroke-width: 1.0;" width="6" x="47" y="112.707"/><text fill="#000000" font-family="sans-serif" font-size="11" lengthAdjust="spacingAndGlyphs" textLength="94" x="59" y="118.0151">drivers : Driver[]</text><line style="stroke: #A80036; stroke-width: 1.5;" x1="40" x2="380" y1="124.6094" y2="124.6094"/><ellipse cx="50" cy="136.5117" fill="#84BE84" rx="3" ry="3" style="stroke: #038048; stroke-width: 1.0;"/><text fill="#000000" font-family="sans-serif" font-size="11" lengthAdjust="spacingAndGlyphs" textLength="236" x="59" y="138.8198">&lt;&lt;constructor&gt;&gt; Race(fileName : String)</text><ellipse cx="50" cy="149.3164" fill="#84BE84" rx="3" ry="3" style="stroke: #038048; stroke-width: 1.0;"/><text fill="#000000" font-family="sans-serif" font-size="11" lengthAdjust="spacingAndGlyphs" textLength="99" x="59" y="151.6245">toString() : String</text><rect fill="#F24D5C" height="6" style="stroke: #C82930; stroke-width: 1.0;" width="6" x="47" y="159.1211"/><text fill="#000000" font-family="sans-serif" font-size="11" lengthAdjust="spacingAndGlyphs" textLength="155" x="59" y="164.4292">getDriverStrings() : String[]</text><ellipse cx="50" cy="174.9258" fill="#84BE84" rx="3" ry="3" style="stroke: #038048; stroke-width: 1.0;"/><text fill="#000000" font-family="sans-serif" font-size="11" lengthAdjust="spacingAndGlyphs" textLength="299" x="59" y="177.2339">getDriversOfRace(raceToFind : String) : List&lt;Driver&gt;</text><ellipse cx="50" cy="187.7305" fill="#84BE84" rx="3" ry="3" style="stroke: #038048; stroke-width: 1.0;"/><text fill="#000000" font-family="sans-serif" font-size="11" lengthAdjust="spacingAndGlyphs" textLength="316" x="59" y="190.0386">whoHasSameRaces(driverName : String) : List&lt;String&gt;</text><rect fill="#FEFECE" filter="url(#f1)" height="60.8047" style="stroke: #A80036; stroke-width: 1.5;" width="177" x="416.5" y="97.5"/><ellipse cx="486.25" cy="113.5" fill="#ADD1B2" rx="11" ry="11" style="stroke: #A80036; stroke-width: 1.0;"/><path d="M489.2188,119.1406 Q488.6406,119.4375 488,119.5859 Q487.3594,119.7344 486.6563,119.7344 Q484.1563,119.7344 482.8359,118.0859 Q481.5156,116.4375 481.5156,113.3125 Q481.5156,110.1875 482.8359,108.5313 Q484.1563,106.875 486.6563,106.875 Q487.3594,106.875 488.0078,107.0313 Q488.6563,107.1875 489.2188,107.4844 L489.2188,110.2031 Q488.5938,109.625 488,109.3516 Q487.4063,109.0781 486.7813,109.0781 Q485.4375,109.0781 484.75,110.1484 Q484.0625,111.2188 484.0625,113.3125 Q484.0625,115.4063 484.75,116.4766 Q485.4375,117.5469 486.7813,117.5469 Q487.4063,117.5469 488,117.2734 Q488.5938,117 489.2188,116.4219 L489.2188,119.1406 Z "/><text fill="#000000" font-family="sans-serif" font-size="12" lengthAdjust="spacingAndGlyphs" textLength="29" x="506.75" y="117.6543">Main</text><line style="stroke: #A80036; stroke-width: 1.5;" x1="417.5" x2="592.5" y1="129.5" y2="129.5"/><line style="stroke: #A80036; stroke-width: 1.5;" x1="417.5" x2="592.5" y1="137.5" y2="137.5"/><ellipse cx="427.5" cy="149.4023" fill="#84BE84" rx="3" ry="3" style="stroke: #038048; stroke-width: 1.0;"/><text fill="#000000" font-family="sans-serif" font-size="11" lengthAdjust="spacingAndGlyphs" text-decoration="underline" textLength="151" x="436.5" y="151.7104">main(args : String[]) : void</text><line style="stroke: #000000; stroke-width: 1.0;" x1="436.5" x2="587.5" y1="153.7104" y2="153.7104"/><path d="M210,210.072 C210,229.834 210,251.206 210,271.743 " fill="none" style="stroke: #A80036; stroke-width: 1.0;"/><polygon fill="none" points="210,197.012,206,203.012,210,209.012,214,203.012,210,197.012" style="stroke: #A80036; stroke-width: 1.0;"/><text fill="#000000" font-family="sans-serif" font-size="13" lengthAdjust="spacingAndGlyphs" textLength="23" x="185.868" y="216.6352">0..*</text><text fill="#000000" font-family="sans-serif" font-size="13" lengthAdjust="spacingAndGlyphs" textLength="23" x="186.1555" y="260.8406">0..*</text><path d="M394.861,338.718 C408.877,346.343 417.5,357.77 417.5,373 C417.5,392.301 403.651,405.495 382.526,412.5817 " fill="none" style="stroke: #A80036; stroke-width: 1.0;"/><polygon fill="#A80036" points="382.526,333.418,386.4599,339.4616,393.5516,338.1547,389.6177,332.1112,382.526,333.418" style="stroke: #A80036; stroke-width: 1.0;"/><text fill="#000000" font-family="sans-serif" font-size="13" lengthAdjust="spacingAndGlyphs" textLength="8" x="390.5248" y="411.1134">1</text></g></svg>